<svg width="124" height="69" viewBox="0 0 124 69" fill="none" xmlns="http://www.w3.org/2000/svg">
<path d="M99.6359 30.7547C100.918 30.7547 102.103 30.0454 102.747 28.8929C103.391 27.7408 103.395 26.3192 102.759 25.1623L93.0331 7.47485H104.536L116.806 28.0797V48.2219H111.812C110.167 40.6187 103.622 34.9195 95.8161 34.9195C88.0103 34.9195 81.4654 40.6187 79.8211 48.2219H44.1786C42.5343 40.6187 35.9895 34.9195 28.1836 34.9195C20.3775 34.9195 13.8326 40.6187 12.188 48.2219H7.19336V33.7552L24.3777 30.7547H99.6359Z" fill="#5DC4EC"/>
<path d="M3.00059 26.907L22.2282 23.5502L41.2261 1.25932C41.9083 0.4585 42.8887 0 43.9183 0L86.8352 0L106.54 0C107.785 0 108.943 0.669684 109.598 1.77077L123.462 25.0503C123.814 25.6408 124 26.3224 124 27.017V51.9598C124 54.024 122.39 55.6976 120.403 55.6976H111.812C110.168 63.3008 103.622 69 95.8162 69C88.0104 69 81.4656 63.3008 79.8212 55.6976H44.1788C42.5344 63.3008 35.9896 69 28.1838 69C20.3776 69 13.8328 63.3008 12.1882 55.6976H3.59674C1.61044 55.6976 4.06028e-07 54.024 4.06028e-07 51.9598V30.5928C-0.000299322 28.7672 1.26816 27.2092 3.00059 26.907ZM60.1801 7.47524H45.5368L32.0676 23.2792H60.1798V7.47524H60.1801ZM84.7479 7.47524H67.3735V23.2792H93.4382L84.7479 7.47524ZM95.8162 61.5244C100.88 61.5244 105.001 57.2531 105.02 51.9956C105.019 51.9835 105.018 51.9719 105.018 51.9598C105.018 51.9476 105.019 51.9361 105.02 51.924C105.001 46.6665 100.88 42.3951 95.8162 42.3951C90.7412 42.3951 86.6125 46.6858 86.6125 51.9598C86.6125 57.2338 90.7412 61.5244 95.8162 61.5244ZM28.1835 61.5244C33.2585 61.5244 37.3872 57.2338 37.3872 51.9598C37.3872 46.6858 33.2585 42.3951 28.1835 42.3951C23.1082 42.3951 18.9791 46.6858 18.9791 51.9598C18.9791 57.2338 23.1085 61.5244 28.1835 61.5244ZM7.19318 48.222H12.1879C13.8325 40.6187 20.3773 34.9196 28.1835 34.9196C35.9893 34.9196 42.5342 40.6187 44.1785 48.222H79.8212C81.4656 40.6187 88.0104 34.9196 95.8162 34.9196C103.622 34.9196 110.168 40.6187 111.812 48.222H116.807V28.0797L104.536 7.47524H93.0333L102.759 25.1627C103.395 26.3196 103.391 27.7408 102.747 28.8933C102.103 30.0455 100.918 30.7551 99.636 30.7551H24.3775L7.19318 33.7556V48.222V48.222Z" fill="#1C2A70"/>
</svg>
